#!OML:ASF H:\Terrain\Patient Classification 1\Animal2\Wednesday\Animal2.ASF
:FULLY-SPECIFIED
:DEGREES
169
root 13.8686 18.141 -10.1371 -177.662 7.95578 -178.8
lowerback 1.33123 -1.68618 2.1639
upperback -5.86149 -1.7318 1.84086
thorax -6.85945 -0.783242 0.820451
lowerneck 13.1557 11.4401 19.3389
upperneck 0.35207 18.0736 -11.2747
head 0.784208 9.44147 -6.52492
rclavicle 3.6477e-014 -1.47101e-014
rhumerus -32.1575 0.241046 -85.9813
rradius 22.3662
rwrist 22.5791
rhand -23.0931 7.26835
rfingers 7.12502
rthumb 3.35315 -22.685
lclavicle 3.6477e-014 -1.47101e-014
lhumerus -59.6685 -31.5888 113.233
lradius 48.3558
lwrist 50.7551
lhand -38.9388 47.1454
lfingers 7.12502
lthumb -11.9446 76.7847
rfemur -0.718863 -11.0051 23.9682
rtibia 18.3499
rfoot -15.2058 -10.6098
rtoes 6.49253
lfemur -15.7737 4.71722 -21.1367
ltibia 23.5356
lfoot -16.8026 15.771
ltoes -0.217338
170
root 13.863 18.1268 -10.2005 -177.684 7.89831 -178.489
lowerback 1.34972 -1.62239 2.47665
upperback -5.85859 -1.61961 1.91219
thorax -6.87602 -0.740217 0.712468
lowerneck 13.0026 11.4823 19.4187
upperneck 0.524041 18.1214 -11.1351
head 0.860246 9.46326 -6.47134
rclavicle -2.85256e-014 -4.77083e-015
rhumerus -32.2403 -0.461052 -85.5638
rradius 22.0091
rwrist 22.9847
rhand -23.3351 7.86635
rfingers 7.12502
rthumb 3.11946 -22.0906
lclavicle -2.85256e-014 -4.77083e-015
lhumerus -59.0991 -31.3578 112.912
lradius 48.7543
lwrist 50.53
lhand -38.9248 50.9337
lfingers 7.12502
lthumb -11.9311 80.5737
rfemur -0.350711 -11.0431 24.2119
rtibia 18.1908
rfoot -14.8454 -10.8543
rtoes 5.30533
lfemur -15.8312 4.80582 -20.9031
ltibia 23.5279
lfoot -16.3569 16.1423
ltoes -1.66517
171
root 13.8572 18.1185 -10.2566 -177.626 7.90678 -178.106
lowerback 1.45197 -1.54663 2.87167
upperback -5.93711 -1.47506 1.96608
thorax -7.0309 -0.684675 0.541815
lowerneck 12.9049 11.4044 19.6715
upperneck 0.767256 18.0568 -11.1355
head 0.959871 9.43973 -6.49027
rclavicle 3.94588e-014 -5.40694e-014
rhumerus -32.4444 -1.422 -85.0498
rradius 21.7772
rwrist 23.7081
rhand -23.2632 8.34202
rfingers 7.12502
rthumb 3.18894 -21.6139
lclavicle 3.94588e-014 -5.40694e-014
lhumerus -58.6679 -31.263 112.692
lradius 48.7214
lwrist 50.0024
lhand -38.2946 50.43
lfingers 7.12502
lthumb -11.3234 80.1043
rfemur -0.0610446 -10.8315 24.5736
rtibia 17.9846
rfoot -14.3179 -11.1603
rtoes 3.10803
lfemur -16.0384 4.73619 -20.5326
ltibia 23.6769
lfoot -16.1791 16.318
ltoes -0.798143
172
root 13.8501 18.1118 -10.3111 -177.608 7.90522 -177.766
lowerback 1.60438 -1.51322 3.19443
upperback -6.01259 -1.38516 2.05967
thorax -7.20848 -0.651656 0.458017
lowerneck 13.0501 11.3537 19.8809
upperneck 0.755384 18.0524 -11.2696
head 0.963968 9.44655 -6.56895
rclavicle 6.95746e-016 1.43125e-014
rhumerus -32.7398 -2.02407 -84.572
rradius 21.8284
rwrist 24.2193
rhand -22.4811 8.32538
rfingers 7.12502
rthumb 3.94415 -21.6179
lclavicle 6.95746e-016 1.43125e-014
lhumerus -58.3795 -31.1661 112.714
lradius 48.7365
lwrist 49.8982
lhand -38.5086 50.0215
lfingers 7.12502
lthumb -11.5298 79.6843
rfemur 0.265545 -10.5486 24.8543
rtibia 17.7736
rfoot -14.0892 -11.1347
rtoes 2.56842
lfemur -16.1334 4.42319 -20.151
ltibia 23.8955
lfoot -15.629 16.4737
ltoes -2.19737
173
root 13.8401 18.1025 -10.371 -177.592 7.88007 -177.471
lowerback 1.57673 -1.55565 3.47869
upperback -6.02278 -1.40161 2.25455
thorax -7.20952 -0.663621 0.503832
lowerneck 13.2911 11.4495 19.7525
upperneck 0.68406 18.213 -11.4094
head 0.932463 9.53625 -6.60579
rclavicle -6.44062e-014 1.43125e-014
rhumerus -32.9853 -1.96491 -84.2502
rradius 21.8499
rwrist 24.083
rhand -21.9803 8.27793
rfingers 7.12502
rthumb 4.42775 -21.6558
lclavicle -6.44062e-014 1.43125e-014
lhumerus -57.9423 -30.8505 112.805
lradius 48.8404
lwrist 49.9065
lhand -38.5722 49.6567
lfingers 7.12502
lthumb -11.5912 79.3162
rfemur 0.508146 -10.4593 25.0442
rtibia 17.7295
rfoot -14.0702 -11.032
rtoes 2.69171
lfemur -16.0117 4.12638 -19.834
ltibia 24.0377
lfoot -14.9926 16.143
ltoes -1.88928
